<mxfile host="app.diagrams.net" modified="2024-06-04T13:05:27.929Z" agent="Mozilla/5.0 (Windows NT 10.0; Win64; x64; rv:109.0) Gecko/20100101 Firefox/115.0" etag="5j72_8pzU21t2AdPBYtP" version="24.4.13" type="github" pages="2">
  <diagram id="i7KtP-Vs8fw_sYRqWalm" name="Sequence diagram">
    <mxGraphModel dx="1851" dy="478" grid="1" gridSize="10" guides="1" tooltips="1" connect="1" arrows="1" fold="1" page="1" pageScale="1" pageWidth="1019" pageHeight="1320" math="0" shadow="0">
      <root>
        <mxCell id="0" />
        <mxCell id="1" parent="0" />
        <mxCell id="VctLPTMkz0ZAZNcB-19W-1" value="" style="group;aspect=fixed;fontSize=18;" vertex="1" connectable="0" parent="1">
          <mxGeometry x="-410" y="48" width="1380" height="588" as="geometry" />
        </mxCell>
        <mxCell id="C0Mu3SqMvDNS-vjBjx_9-90" value="Context Propagation" style="shape=umlFrame;whiteSpace=wrap;html=1;pointerEvents=0;width=130;height=38;fontSize=18;" parent="VctLPTMkz0ZAZNcB-19W-1" vertex="1">
          <mxGeometry width="1380" height="588" as="geometry" />
        </mxCell>
        <mxCell id="C0Mu3SqMvDNS-vjBjx_9-61" value="&lt;div style=&quot;font-size: 18px;&quot;&gt;:IContext&lt;/div&gt;" style="shape=umlLifeline;perimeter=lifelinePerimeter;whiteSpace=wrap;html=1;container=0;collapsible=0;recursiveResize=0;outlineConnect=0;fillColor=#CDEB8B;strokeColor=#36393d;fontFamily=Times New Roman;fontSize=18;" parent="VctLPTMkz0ZAZNcB-19W-1" vertex="1">
          <mxGeometry x="760" y="31" width="80" height="540" as="geometry" />
        </mxCell>
        <mxCell id="XppZFFv2hi1EjOijFOD9-4" value=":Thread-2" style="shape=umlLifeline;perimeter=lifelinePerimeter;whiteSpace=wrap;html=1;container=1;collapsible=0;recursiveResize=0;outlineConnect=0;fillColor=#ffe6cc;strokeColor=#d79b00;fontFamily=Times New Roman;fontSize=18;" parent="VctLPTMkz0ZAZNcB-19W-1" vertex="1">
          <mxGeometry x="1180" y="31" width="100" height="530" as="geometry" />
        </mxCell>
        <mxCell id="XppZFFv2hi1EjOijFOD9-5" value="" style="html=1;points=[];perimeter=orthogonalPerimeter;fillColor=#ffe6cc;strokeColor=#d79b00;fontFamily=Times New Roman;fontSize=18;" parent="XppZFFv2hi1EjOijFOD9-4" vertex="1">
          <mxGeometry x="45" y="80" width="10" height="450" as="geometry" />
        </mxCell>
        <mxCell id="C0Mu3SqMvDNS-vjBjx_9-48" value="" style="group;fontFamily=Times New Roman;fontSize=18;" parent="XppZFFv2hi1EjOijFOD9-4" vertex="1" connectable="0">
          <mxGeometry x="48" y="208" width="35" height="60" as="geometry" />
        </mxCell>
        <mxCell id="C0Mu3SqMvDNS-vjBjx_9-45" value="" style="html=1;points=[[0,0,0,0,5],[0,1,0,0,-5],[1,0,0,0,5],[1,1,0,0,-5]];perimeter=orthogonalPerimeter;outlineConnect=0;targetShapes=umlLifeline;portConstraint=eastwest;newEdgeStyle={&quot;curved&quot;:0,&quot;rounded&quot;:0};fillColor=#FFE6CC;strokeColor=#D79B00;strokeWidth=1;fontFamily=Times New Roman;fontSize=18;" parent="C0Mu3SqMvDNS-vjBjx_9-48" vertex="1">
          <mxGeometry y="20" width="10" height="40" as="geometry" />
        </mxCell>
        <mxCell id="C0Mu3SqMvDNS-vjBjx_9-46" value="&lt;font style=&quot;font-size: 18px;&quot;&gt;start()&lt;br style=&quot;font-size: 18px;&quot;&gt;&lt;/font&gt;" style="html=1;align=left;spacingLeft=2;endArrow=block;rounded=0;edgeStyle=orthogonalEdgeStyle;curved=0;rounded=0;fontFamily=Times New Roman;fontSize=18;" parent="C0Mu3SqMvDNS-vjBjx_9-48" target="C0Mu3SqMvDNS-vjBjx_9-45" edge="1">
          <mxGeometry relative="1" as="geometry">
            <mxPoint x="5" as="sourcePoint" />
            <Array as="points">
              <mxPoint x="35" y="30" />
            </Array>
          </mxGeometry>
        </mxCell>
        <mxCell id="XppZFFv2hi1EjOijFOD9-11" value=":ThreadPool" style="shape=umlLifeline;perimeter=lifelinePerimeter;whiteSpace=wrap;html=1;container=1;collapsible=0;recursiveResize=0;outlineConnect=0;fillColor=#dae8fc;strokeColor=#6c8ebf;fontFamily=Times New Roman;fontSize=18;" parent="VctLPTMkz0ZAZNcB-19W-1" vertex="1">
          <mxGeometry x="1030" y="31" width="100" height="550" as="geometry" />
        </mxCell>
        <mxCell id="XppZFFv2hi1EjOijFOD9-12" value="" style="html=1;points=[];perimeter=orthogonalPerimeter;fillColor=#dae8fc;strokeColor=#6c8ebf;fontFamily=Times New Roman;fontSize=18;" parent="XppZFFv2hi1EjOijFOD9-11" vertex="1">
          <mxGeometry x="45" y="40" width="10" height="490" as="geometry" />
        </mxCell>
        <mxCell id="C0Mu3SqMvDNS-vjBjx_9-41" style="edgeStyle=orthogonalEdgeStyle;rounded=0;orthogonalLoop=1;jettySize=auto;html=1;fontFamily=Times New Roman;fontSize=18;" parent="XppZFFv2hi1EjOijFOD9-11" edge="1">
          <mxGeometry relative="1" as="geometry">
            <mxPoint x="-130.5" y="201.55" as="sourcePoint" />
            <mxPoint x="45" y="201.55" as="targetPoint" />
          </mxGeometry>
        </mxCell>
        <mxCell id="C0Mu3SqMvDNS-vjBjx_9-70" style="edgeStyle=orthogonalEdgeStyle;rounded=0;orthogonalLoop=1;jettySize=auto;html=1;dashed=1;fontFamily=Times New Roman;fontSize=18;" parent="XppZFFv2hi1EjOijFOD9-11" target="C0Mu3SqMvDNS-vjBjx_9-9" edge="1">
          <mxGeometry relative="1" as="geometry">
            <mxPoint x="195" y="430" as="sourcePoint" />
            <mxPoint x="-220" y="430" as="targetPoint" />
            <Array as="points">
              <mxPoint x="-470" y="430" />
              <mxPoint x="-470" y="430" />
            </Array>
          </mxGeometry>
        </mxCell>
        <mxCell id="XppZFFv2hi1EjOijFOD9-15" value="&lt;div style=&quot;font-size: 18px;&quot;&gt;:ContextPropagationManager&lt;/div&gt;" style="shape=umlLifeline;perimeter=lifelinePerimeter;whiteSpace=wrap;html=1;container=0;collapsible=0;recursiveResize=0;outlineConnect=0;fillColor=#d5e8d4;strokeColor=#82b366;fontFamily=Times New Roman;fontSize=18;" parent="VctLPTMkz0ZAZNcB-19W-1" vertex="1">
          <mxGeometry x="371" y="31" width="210" height="420" as="geometry" />
        </mxCell>
        <mxCell id="C0Mu3SqMvDNS-vjBjx_9-64" style="edgeStyle=orthogonalEdgeStyle;rounded=0;orthogonalLoop=1;jettySize=auto;html=1;fontFamily=Times New Roman;fontSize=18;" parent="VctLPTMkz0ZAZNcB-19W-1" edge="1">
          <mxGeometry relative="1" as="geometry">
            <mxPoint x="480" y="175.47826086956525" as="sourcePoint" />
            <mxPoint x="790" y="175" as="targetPoint" />
            <Array as="points">
              <mxPoint x="710" y="175" />
              <mxPoint x="710" y="175" />
            </Array>
          </mxGeometry>
        </mxCell>
        <mxCell id="XppZFFv2hi1EjOijFOD9-3" value="" style="html=1;points=[];perimeter=orthogonalPerimeter;fillColor=#d5e8d4;strokeColor=#82b366;fontFamily=Times New Roman;fontSize=18;" parent="VctLPTMkz0ZAZNcB-19W-1" vertex="1">
          <mxGeometry x="470" y="126" width="10" height="275" as="geometry" />
        </mxCell>
        <mxCell id="C0Mu3SqMvDNS-vjBjx_9-9" value=":Runable" style="shape=umlLifeline;perimeter=lifelinePerimeter;whiteSpace=wrap;html=1;container=0;collapsible=0;recursiveResize=0;outlineConnect=0;fillColor=#b0e3e6;strokeColor=#0e8088;fontFamily=Times New Roman;fontSize=18;" parent="VctLPTMkz0ZAZNcB-19W-1" vertex="1">
          <mxGeometry x="277" y="31" width="80" height="510" as="geometry" />
        </mxCell>
        <mxCell id="C0Mu3SqMvDNS-vjBjx_9-35" style="edgeStyle=orthogonalEdgeStyle;rounded=0;orthogonalLoop=1;jettySize=auto;html=1;fontFamily=Times New Roman;fontSize=18;" parent="VctLPTMkz0ZAZNcB-19W-1" edge="1">
          <mxGeometry relative="1" as="geometry">
            <mxPoint x="321" y="127" as="sourcePoint" />
            <mxPoint x="474.5" y="127" as="targetPoint" />
          </mxGeometry>
        </mxCell>
        <mxCell id="C0Mu3SqMvDNS-vjBjx_9-77" style="edgeStyle=orthogonalEdgeStyle;rounded=0;orthogonalLoop=1;jettySize=auto;html=1;fontFamily=Times New Roman;fontSize=18;" parent="VctLPTMkz0ZAZNcB-19W-1" edge="1">
          <mxGeometry relative="1" as="geometry">
            <mxPoint x="790" y="491.02" as="targetPoint" />
            <mxPoint x="321.0000000000002" y="491.0014814814814" as="sourcePoint" />
          </mxGeometry>
        </mxCell>
        <mxCell id="C0Mu3SqMvDNS-vjBjx_9-10" value="" style="html=1;points=[];perimeter=orthogonalPerimeter;fillColor=#b0e3e6;strokeColor=#0e8088;fontFamily=Times New Roman;fontSize=18;" parent="VctLPTMkz0ZAZNcB-19W-1" vertex="1">
          <mxGeometry x="311" y="126" width="10" height="365" as="geometry" />
        </mxCell>
        <mxCell id="C0Mu3SqMvDNS-vjBjx_9-25" value="" style="group;fontFamily=Times New Roman;fontSize=18;" parent="VctLPTMkz0ZAZNcB-19W-1" vertex="1" connectable="0">
          <mxGeometry x="493" y="195" width="290" height="30" as="geometry" />
        </mxCell>
        <mxCell id="C0Mu3SqMvDNS-vjBjx_9-17" value="" style="rounded=0;whiteSpace=wrap;html=1;fontFamily=Times New Roman;fontSize=18;" parent="C0Mu3SqMvDNS-vjBjx_9-25" vertex="1">
          <mxGeometry x="7" width="283" height="30" as="geometry" />
        </mxCell>
        <mxCell id="C0Mu3SqMvDNS-vjBjx_9-18" value="&lt;div style=&quot;font-size: 18px;&quot;&gt;&lt;font style=&quot;font-size: 18px;&quot;&gt;ContextPropagation&lt;/font&gt;&lt;/div&gt;&lt;div style=&quot;font-size: 18px;&quot;&gt;&lt;font style=&quot;font-size: 18px;&quot;&gt;Linked list&lt;/font&gt;&lt;/div&gt;" style="text;html=1;align=center;verticalAlign=middle;whiteSpace=wrap;rounded=0;fontFamily=Times New Roman;fontSize=18;" parent="C0Mu3SqMvDNS-vjBjx_9-25" vertex="1">
          <mxGeometry x="12" y="4.499999999999999" width="134.5" height="22.5" as="geometry" />
        </mxCell>
        <mxCell id="C0Mu3SqMvDNS-vjBjx_9-19" style="edgeStyle=orthogonalEdgeStyle;rounded=0;orthogonalLoop=1;jettySize=auto;html=1;fontFamily=Times New Roman;fontSize=18;" parent="C0Mu3SqMvDNS-vjBjx_9-25" source="C0Mu3SqMvDNS-vjBjx_9-20" target="C0Mu3SqMvDNS-vjBjx_9-22" edge="1">
          <mxGeometry relative="1" as="geometry" />
        </mxCell>
        <mxCell id="C0Mu3SqMvDNS-vjBjx_9-20" value="" style="rounded=0;whiteSpace=wrap;html=1;fontFamily=Times New Roman;fontSize=18;" parent="C0Mu3SqMvDNS-vjBjx_9-25" vertex="1">
          <mxGeometry x="149.5" y="8.25" width="30" height="11.25" as="geometry" />
        </mxCell>
        <mxCell id="C0Mu3SqMvDNS-vjBjx_9-21" style="edgeStyle=orthogonalEdgeStyle;rounded=0;orthogonalLoop=1;jettySize=auto;html=1;fontFamily=Times New Roman;fontSize=18;" parent="C0Mu3SqMvDNS-vjBjx_9-25" source="C0Mu3SqMvDNS-vjBjx_9-22" target="C0Mu3SqMvDNS-vjBjx_9-23" edge="1">
          <mxGeometry relative="1" as="geometry" />
        </mxCell>
        <mxCell id="C0Mu3SqMvDNS-vjBjx_9-22" value="" style="rounded=0;whiteSpace=wrap;html=1;fontFamily=Times New Roman;fontSize=18;" parent="C0Mu3SqMvDNS-vjBjx_9-25" vertex="1">
          <mxGeometry x="199.5" y="8.25" width="30" height="11.25" as="geometry" />
        </mxCell>
        <mxCell id="C0Mu3SqMvDNS-vjBjx_9-23" value="" style="rounded=0;whiteSpace=wrap;html=1;fontFamily=Times New Roman;fontSize=18;" parent="C0Mu3SqMvDNS-vjBjx_9-25" vertex="1">
          <mxGeometry x="249" y="8.25" width="30" height="11.25" as="geometry" />
        </mxCell>
        <mxCell id="C0Mu3SqMvDNS-vjBjx_9-27" value=":Thread-1" style="shape=umlLifeline;perimeter=lifelinePerimeter;whiteSpace=wrap;html=1;container=1;collapsible=0;recursiveResize=0;outlineConnect=0;fillColor=#ffe6cc;strokeColor=#d79b00;fontFamily=Times New Roman;fontSize=18;" parent="VctLPTMkz0ZAZNcB-19W-1" vertex="1">
          <mxGeometry x="140" y="31" width="100" height="520" as="geometry" />
        </mxCell>
        <mxCell id="C0Mu3SqMvDNS-vjBjx_9-28" value="" style="html=1;points=[];perimeter=orthogonalPerimeter;fillColor=#ffe6cc;strokeColor=#D79B00;fontFamily=Times New Roman;fontSize=18;" parent="C0Mu3SqMvDNS-vjBjx_9-27" vertex="1">
          <mxGeometry x="45" y="70" width="10" height="420" as="geometry" />
        </mxCell>
        <mxCell id="C0Mu3SqMvDNS-vjBjx_9-80" value="" style="html=1;points=[[0,0,0,0,5],[0,1,0,0,-5],[1,0,0,0,5],[1,1,0,0,-5]];perimeter=orthogonalPerimeter;outlineConnect=0;targetShapes=umlLifeline;portConstraint=eastwest;newEdgeStyle={&quot;curved&quot;:0,&quot;rounded&quot;:0};fillColor=#FFE6CC;strokeColor=#D79B00;fontFamily=Times New Roman;fontSize=18;" parent="C0Mu3SqMvDNS-vjBjx_9-27" vertex="1">
          <mxGeometry x="46" y="362" width="10" height="40" as="geometry" />
        </mxCell>
        <mxCell id="C0Mu3SqMvDNS-vjBjx_9-81" value="Close" style="html=1;align=left;spacingLeft=2;endArrow=block;rounded=0;edgeStyle=orthogonalEdgeStyle;curved=0;rounded=0;fontFamily=Times New Roman;fontSize=18;" parent="C0Mu3SqMvDNS-vjBjx_9-27" target="C0Mu3SqMvDNS-vjBjx_9-80" edge="1">
          <mxGeometry relative="1" as="geometry">
            <mxPoint x="51" y="342" as="sourcePoint" />
            <Array as="points">
              <mxPoint x="81" y="372" />
            </Array>
          </mxGeometry>
        </mxCell>
        <mxCell id="C0Mu3SqMvDNS-vjBjx_9-33" style="edgeStyle=orthogonalEdgeStyle;rounded=0;orthogonalLoop=1;jettySize=auto;html=1;fontFamily=Times New Roman;fontSize=18;" parent="VctLPTMkz0ZAZNcB-19W-1" edge="1">
          <mxGeometry relative="1" as="geometry">
            <mxPoint x="195" y="127" as="sourcePoint" />
            <mxPoint x="310" y="127" as="targetPoint" />
            <Array as="points">
              <mxPoint x="290" y="127" />
              <mxPoint x="290" y="127" />
            </Array>
          </mxGeometry>
        </mxCell>
        <mxCell id="C0Mu3SqMvDNS-vjBjx_9-34" value="gen task" style="text;html=1;align=center;verticalAlign=middle;resizable=0;points=[];autosize=1;strokeColor=none;fillColor=none;fontFamily=Times New Roman;fontSize=18;" parent="VctLPTMkz0ZAZNcB-19W-1" vertex="1">
          <mxGeometry x="216" y="94" width="80" height="40" as="geometry" />
        </mxCell>
        <mxCell id="C0Mu3SqMvDNS-vjBjx_9-38" value="&lt;div style=&quot;font-size: 18px;&quot;&gt;:Runable&lt;/div&gt;" style="shape=umlLifeline;perimeter=lifelinePerimeter;whiteSpace=wrap;html=1;container=0;collapsible=0;recursiveResize=0;outlineConnect=0;fillColor=#b0e3e6;strokeColor=#0e8088;fontFamily=Times New Roman;fontSize=18;" parent="VctLPTMkz0ZAZNcB-19W-1" vertex="1">
          <mxGeometry x="860" y="31" width="80" height="540" as="geometry" />
        </mxCell>
        <mxCell id="C0Mu3SqMvDNS-vjBjx_9-39" value="" style="html=1;points=[];perimeter=orthogonalPerimeter;fillColor=#b0e3e6;strokeColor=#0e8088;fontFamily=Times New Roman;fontSize=18;" parent="VctLPTMkz0ZAZNcB-19W-1" vertex="1">
          <mxGeometry x="894" y="126" width="10" height="415" as="geometry" />
        </mxCell>
        <mxCell id="C0Mu3SqMvDNS-vjBjx_9-40" value="with list" style="shape=note2;boundedLbl=1;whiteSpace=wrap;html=1;size=18;verticalAlign=top;align=center;fontSize=18;fillColor=#B0E3E6;fontFamily=Times New Roman;" parent="VctLPTMkz0ZAZNcB-19W-1" vertex="1">
          <mxGeometry x="910" y="146.02" width="100" height="56" as="geometry" />
        </mxCell>
        <mxCell id="C0Mu3SqMvDNS-vjBjx_9-42" value="execute" style="text;html=1;align=center;verticalAlign=middle;resizable=0;points=[];autosize=1;strokeColor=none;fillColor=none;fontFamily=Times New Roman;fontSize=18;" parent="VctLPTMkz0ZAZNcB-19W-1" vertex="1">
          <mxGeometry x="945" y="199.5" width="80" height="40" as="geometry" />
        </mxCell>
        <mxCell id="C0Mu3SqMvDNS-vjBjx_9-44" style="edgeStyle=orthogonalEdgeStyle;rounded=0;orthogonalLoop=1;jettySize=auto;html=1;fontFamily=Times New Roman;fontSize=18;" parent="VctLPTMkz0ZAZNcB-19W-1" edge="1">
          <mxGeometry relative="1" as="geometry">
            <mxPoint x="1085" y="135" as="sourcePoint" />
            <mxPoint x="1229.5" y="135" as="targetPoint" />
            <Array as="points">
              <mxPoint x="1180" y="135" />
              <mxPoint x="1180" y="135" />
            </Array>
          </mxGeometry>
        </mxCell>
        <mxCell id="C0Mu3SqMvDNS-vjBjx_9-49" style="edgeStyle=orthogonalEdgeStyle;rounded=0;orthogonalLoop=1;jettySize=auto;html=1;dashed=1;fontFamily=Times New Roman;fontSize=18;" parent="VctLPTMkz0ZAZNcB-19W-1" source="XppZFFv2hi1EjOijFOD9-4" edge="1">
          <mxGeometry relative="1" as="geometry">
            <mxPoint x="1122.83" y="321" as="sourcePoint" />
            <mxPoint x="471.9966666666665" y="321" as="targetPoint" />
            <Array as="points">
              <mxPoint x="1040" y="321" />
              <mxPoint x="1040" y="321" />
            </Array>
          </mxGeometry>
        </mxCell>
        <mxCell id="C0Mu3SqMvDNS-vjBjx_9-56" value="" style="group;fontFamily=Times New Roman;fontSize=18;" parent="VctLPTMkz0ZAZNcB-19W-1" vertex="1" connectable="0">
          <mxGeometry x="472" y="126.02000000000001" width="35" height="60" as="geometry" />
        </mxCell>
        <mxCell id="C0Mu3SqMvDNS-vjBjx_9-50" value="" style="html=1;points=[[0,0,0,0,5],[0,1,0,0,-5],[1,0,0,0,5],[1,1,0,0,-5]];perimeter=orthogonalPerimeter;outlineConnect=0;targetShapes=umlLifeline;portConstraint=eastwest;newEdgeStyle={&quot;curved&quot;:0,&quot;rounded&quot;:0};fillColor=#D5E8D4;strokeColor=#82B366;fontFamily=Times New Roman;fontSize=18;" parent="C0Mu3SqMvDNS-vjBjx_9-56" vertex="1">
          <mxGeometry y="20" width="10" height="40" as="geometry" />
        </mxCell>
        <mxCell id="C0Mu3SqMvDNS-vjBjx_9-51" value="&lt;div style=&quot;font-size: 18px;&quot;&gt;baggage&lt;/div&gt;" style="html=1;align=left;spacingLeft=2;endArrow=block;rounded=0;edgeStyle=orthogonalEdgeStyle;curved=0;rounded=0;fontFamily=Times New Roman;fontSize=18;" parent="C0Mu3SqMvDNS-vjBjx_9-56" target="C0Mu3SqMvDNS-vjBjx_9-50" edge="1">
          <mxGeometry relative="1" as="geometry">
            <mxPoint x="5" as="sourcePoint" />
            <Array as="points">
              <mxPoint x="35" y="30" />
            </Array>
          </mxGeometry>
        </mxCell>
        <mxCell id="C0Mu3SqMvDNS-vjBjx_9-57" value="" style="group;fontFamily=Times New Roman;fontSize=18;" parent="VctLPTMkz0ZAZNcB-19W-1" vertex="1" connectable="0">
          <mxGeometry x="472" y="331" width="35" height="60" as="geometry" />
        </mxCell>
        <mxCell id="C0Mu3SqMvDNS-vjBjx_9-58" value="" style="html=1;points=[[0,0,0,0,5],[0,1,0,0,-5],[1,0,0,0,5],[1,1,0,0,-5]];perimeter=orthogonalPerimeter;outlineConnect=0;targetShapes=umlLifeline;portConstraint=eastwest;newEdgeStyle={&quot;curved&quot;:0,&quot;rounded&quot;:0};fillColor=#D5E8D4;strokeColor=#82B366;fontFamily=Times New Roman;fontSize=18;" parent="C0Mu3SqMvDNS-vjBjx_9-57" vertex="1">
          <mxGeometry y="20" width="10" height="40" as="geometry" />
        </mxCell>
        <mxCell id="C0Mu3SqMvDNS-vjBjx_9-59" value="&lt;div style=&quot;font-size: 18px;&quot;&gt;propagate&lt;/div&gt;" style="html=1;align=left;spacingLeft=2;endArrow=block;rounded=0;edgeStyle=orthogonalEdgeStyle;curved=0;rounded=0;fontFamily=Times New Roman;fontSize=18;" parent="C0Mu3SqMvDNS-vjBjx_9-57" target="C0Mu3SqMvDNS-vjBjx_9-58" edge="1">
          <mxGeometry relative="1" as="geometry">
            <mxPoint x="5" as="sourcePoint" />
            <Array as="points">
              <mxPoint x="35" y="30" />
            </Array>
          </mxGeometry>
        </mxCell>
        <mxCell id="C0Mu3SqMvDNS-vjBjx_9-60" value="" style="html=1;verticalAlign=bottom;endArrow=block;rounded=0;strokeWidth=1;fontFamily=Times New Roman;fontSize=18;" parent="VctLPTMkz0ZAZNcB-19W-1" target="XppZFFv2hi1EjOijFOD9-4" edge="1">
          <mxGeometry relative="1" as="geometry">
            <mxPoint x="480" y="400.09000000000003" as="sourcePoint" />
            <mxPoint x="790" y="400.09000000000003" as="targetPoint" />
          </mxGeometry>
        </mxCell>
        <mxCell id="C0Mu3SqMvDNS-vjBjx_9-62" value="" style="html=1;points=[];perimeter=orthogonalPerimeter;fillColor=#CDEB8B;strokeColor=#0e8088;fontFamily=Times New Roman;fontSize=18;" parent="VctLPTMkz0ZAZNcB-19W-1" vertex="1">
          <mxGeometry x="795" y="151" width="10" height="390" as="geometry" />
        </mxCell>
        <mxCell id="C0Mu3SqMvDNS-vjBjx_9-65" value="&amp;lt;&amp;lt;create&amp;gt;&amp;gt;" style="text;html=1;align=center;verticalAlign=middle;resizable=0;points=[];autosize=1;strokeColor=none;fillColor=none;fontFamily=Times New Roman;fontSize=18;" parent="VctLPTMkz0ZAZNcB-19W-1" vertex="1">
          <mxGeometry x="575" y="146" width="110" height="40" as="geometry" />
        </mxCell>
        <mxCell id="C0Mu3SqMvDNS-vjBjx_9-66" style="edgeStyle=orthogonalEdgeStyle;rounded=0;orthogonalLoop=1;jettySize=auto;html=1;entryX=1.409;entryY=0.674;entryDx=0;entryDy=0;entryPerimeter=0;dashed=1;fontFamily=Times New Roman;fontSize=18;" parent="VctLPTMkz0ZAZNcB-19W-1" edge="1">
          <mxGeometry relative="1" as="geometry">
            <mxPoint x="793" y="184.0034782608695" as="sourcePoint" />
            <mxPoint x="482.09000000000015" y="184.30999999999992" as="targetPoint" />
          </mxGeometry>
        </mxCell>
        <mxCell id="XppZFFv2hi1EjOijFOD9-10" value="" style="html=1;verticalAlign=bottom;endArrow=block;rounded=0;strokeWidth=1;fontFamily=Times New Roman;fontSize=18;" parent="VctLPTMkz0ZAZNcB-19W-1" edge="1">
          <mxGeometry relative="1" as="geometry">
            <mxPoint x="480" y="231" as="sourcePoint" />
            <mxPoint x="890" y="231" as="targetPoint" />
          </mxGeometry>
        </mxCell>
        <mxCell id="C0Mu3SqMvDNS-vjBjx_9-67" value="Context Set" style="shape=note2;boundedLbl=1;whiteSpace=wrap;html=1;size=15;verticalAlign=top;align=center;fontSize=18;fillColor=#FFE6CC;fontFamily=Times New Roman;" parent="VctLPTMkz0ZAZNcB-19W-1" vertex="1">
          <mxGeometry x="1240" y="331" width="100" height="56" as="geometry" />
        </mxCell>
        <mxCell id="C0Mu3SqMvDNS-vjBjx_9-78" style="edgeStyle=orthogonalEdgeStyle;rounded=0;orthogonalLoop=1;jettySize=auto;html=1;curved=0;fontFamily=Times New Roman;fontSize=18;" parent="VctLPTMkz0ZAZNcB-19W-1" source="C0Mu3SqMvDNS-vjBjx_9-74" target="XppZFFv2hi1EjOijFOD9-4" edge="1">
          <mxGeometry relative="1" as="geometry">
            <Array as="points">
              <mxPoint x="1120" y="521" />
              <mxPoint x="1120" y="521" />
            </Array>
          </mxGeometry>
        </mxCell>
        <mxCell id="C0Mu3SqMvDNS-vjBjx_9-74" value="" style="html=1;points=[[0,0,0,0,5],[0,1,0,0,-5],[1,0,0,0,5],[1,1,0,0,-5]];perimeter=orthogonalPerimeter;outlineConnect=0;targetShapes=umlLifeline;portConstraint=eastwest;newEdgeStyle={&quot;curved&quot;:0,&quot;rounded&quot;:0};fillColor=#CDEB8B;fontFamily=Times New Roman;fontSize=18;" parent="VctLPTMkz0ZAZNcB-19W-1" vertex="1">
          <mxGeometry x="797" y="501" width="10" height="40" as="geometry" />
        </mxCell>
        <mxCell id="C0Mu3SqMvDNS-vjBjx_9-75" value="dispose" style="html=1;align=left;spacingLeft=2;endArrow=block;rounded=0;edgeStyle=orthogonalEdgeStyle;curved=0;rounded=0;fontFamily=Times New Roman;fontSize=18;" parent="VctLPTMkz0ZAZNcB-19W-1" target="C0Mu3SqMvDNS-vjBjx_9-74" edge="1">
          <mxGeometry relative="1" as="geometry">
            <mxPoint x="802" y="481" as="sourcePoint" />
            <Array as="points">
              <mxPoint x="832" y="511" />
            </Array>
          </mxGeometry>
        </mxCell>
        <mxCell id="C0Mu3SqMvDNS-vjBjx_9-79" value="Context Remove" style="shape=note2;boundedLbl=1;whiteSpace=wrap;html=1;size=11;verticalAlign=top;align=center;fontSize=18;fillColor=#FFE6CC;fontFamily=Times New Roman;" parent="VctLPTMkz0ZAZNcB-19W-1" vertex="1">
          <mxGeometry x="1240" y="491" width="100" height="56" as="geometry" />
        </mxCell>
        <mxCell id="C0Mu3SqMvDNS-vjBjx_9-83" value="&amp;lt;&amp;lt;destroy&amp;gt;&amp;gt;&amp;nbsp;&amp;nbsp;&amp;nbsp;&amp;nbsp; Close" style="text;html=1;align=center;verticalAlign=middle;whiteSpace=wrap;rounded=0;fontFamily=Times New Roman;fontSize=18;" parent="VctLPTMkz0ZAZNcB-19W-1" vertex="1">
          <mxGeometry x="472" y="463" width="188" height="30" as="geometry" />
        </mxCell>
        <mxCell id="C0Mu3SqMvDNS-vjBjx_9-85" value="Context Remove" style="shape=note2;boundedLbl=1;whiteSpace=wrap;html=1;size=11;verticalAlign=top;align=center;fontSize=18;fillColor=#FFE6CC;fontFamily=Times New Roman;" parent="VctLPTMkz0ZAZNcB-19W-1" vertex="1">
          <mxGeometry x="80" y="391" width="100" height="56" as="geometry" />
        </mxCell>
        <mxCell id="C0Mu3SqMvDNS-vjBjx_9-86" value="With Context" style="shape=note2;boundedLbl=1;whiteSpace=wrap;html=1;size=15;verticalAlign=top;align=center;fontSize=18;fillColor=#FFE6CC;fontFamily=Times New Roman;" parent="VctLPTMkz0ZAZNcB-19W-1" vertex="1">
          <mxGeometry x="80" y="90.02000000000001" width="100" height="56" as="geometry" />
        </mxCell>
        <mxCell id="C0Mu3SqMvDNS-vjBjx_9-87" style="edgeStyle=orthogonalEdgeStyle;rounded=0;orthogonalLoop=1;jettySize=auto;html=1;entryX=1.051;entryY=0.384;entryDx=0;entryDy=0;entryPerimeter=0;dashed=1;fontFamily=Times New Roman;fontSize=18;" parent="VctLPTMkz0ZAZNcB-19W-1" edge="1">
          <mxGeometry relative="1" as="geometry">
            <mxPoint x="1075" y="238.9726315789473" as="sourcePoint" />
            <mxPoint x="195.50999999999976" y="238.27999999999986" as="targetPoint" />
            <Array as="points">
              <mxPoint x="870" y="239" />
            </Array>
          </mxGeometry>
        </mxCell>
        <mxCell id="C0Mu3SqMvDNS-vjBjx_9-88" value="Async return" style="text;html=1;align=center;verticalAlign=middle;resizable=0;points=[];autosize=1;strokeColor=none;fillColor=none;fontFamily=Times New Roman;fontSize=18;" parent="VctLPTMkz0ZAZNcB-19W-1" vertex="1">
          <mxGeometry x="545" y="228" width="120" height="40" as="geometry" />
        </mxCell>
        <mxCell id="C0Mu3SqMvDNS-vjBjx_9-68" value="" style="shape=umlDestroy;whiteSpace=wrap;html=1;strokeWidth=3;targetShapes=umlLifeline;fontFamily=Times New Roman;fontSize=18;" parent="VctLPTMkz0ZAZNcB-19W-1" vertex="1">
          <mxGeometry x="462" y="417" width="28" height="30" as="geometry" />
        </mxCell>
      </root>
    </mxGraphModel>
  </diagram>
  <diagram id="hbYBUEr95w08JzggDiKY" name="With loop">
    <mxGraphModel dx="1332" dy="983" grid="1" gridSize="10" guides="1" tooltips="1" connect="1" arrows="1" fold="1" page="1" pageScale="1" pageWidth="1019" pageHeight="1320" math="0" shadow="0">
      <root>
        <mxCell id="jC507fco_XKDHWjVbaC3-0" />
        <mxCell id="jC507fco_XKDHWjVbaC3-1" parent="jC507fco_XKDHWjVbaC3-0" />
        <mxCell id="jC507fco_XKDHWjVbaC3-2" value="sd example with a loop" style="shape=umlFrame;whiteSpace=wrap;html=1;width=150;height=30;boundedLbl=1;verticalAlign=middle;align=left;spacingLeft=5;fillColor=#f5f5f5;fontColor=#333333;strokeColor=#666666;" vertex="1" parent="jC507fco_XKDHWjVbaC3-1">
          <mxGeometry x="20" y="30" width="740" height="490" as="geometry" />
        </mxCell>
        <mxCell id="jC507fco_XKDHWjVbaC3-3" value=":Object" style="shape=umlLifeline;perimeter=lifelinePerimeter;whiteSpace=wrap;html=1;container=1;collapsible=0;recursiveResize=0;outlineConnect=0;fillColor=#dae8fc;strokeColor=#6c8ebf;" vertex="1" parent="jC507fco_XKDHWjVbaC3-1">
          <mxGeometry x="320" y="80" width="100" height="400" as="geometry" />
        </mxCell>
        <mxCell id="jC507fco_XKDHWjVbaC3-4" value="" style="html=1;points=[];perimeter=orthogonalPerimeter;" vertex="1" parent="jC507fco_XKDHWjVbaC3-3">
          <mxGeometry x="45" y="80" width="10" height="240" as="geometry" />
        </mxCell>
        <mxCell id="jC507fco_XKDHWjVbaC3-5" value="" style="html=1;points=[];perimeter=orthogonalPerimeter;" vertex="1" parent="jC507fco_XKDHWjVbaC3-3">
          <mxGeometry x="50" y="120" width="10" height="55" as="geometry" />
        </mxCell>
        <mxCell id="jC507fco_XKDHWjVbaC3-6" value="self call" style="edgeStyle=orthogonalEdgeStyle;html=1;align=left;spacingLeft=2;endArrow=block;rounded=0;entryX=1;entryY=0;" edge="1" parent="jC507fco_XKDHWjVbaC3-3" target="jC507fco_XKDHWjVbaC3-5">
          <mxGeometry relative="1" as="geometry">
            <mxPoint x="55" y="105" as="sourcePoint" />
            <Array as="points">
              <mxPoint x="85" y="105" />
            </Array>
          </mxGeometry>
        </mxCell>
        <mxCell id="jC507fco_XKDHWjVbaC3-7" value="" style="shape=umlLifeline;participant=umlActor;perimeter=lifelinePerimeter;whiteSpace=wrap;html=1;container=1;collapsible=0;recursiveResize=0;verticalAlign=top;spacingTop=36;outlineConnect=0;fillColor=#f8cecc;strokeColor=#b85450;" vertex="1" parent="jC507fco_XKDHWjVbaC3-1">
          <mxGeometry x="95" y="80" width="20" height="410" as="geometry" />
        </mxCell>
        <mxCell id="jC507fco_XKDHWjVbaC3-8" value="" style="html=1;points=[];perimeter=orthogonalPerimeter;" vertex="1" parent="jC507fco_XKDHWjVbaC3-7">
          <mxGeometry x="5" y="70" width="10" height="300" as="geometry" />
        </mxCell>
        <mxCell id="jC507fco_XKDHWjVbaC3-9" value="dispatch" style="html=1;verticalAlign=bottom;startArrow=oval;endArrow=block;startSize=8;rounded=0;" edge="1" parent="jC507fco_XKDHWjVbaC3-7" target="jC507fco_XKDHWjVbaC3-8">
          <mxGeometry relative="1" as="geometry">
            <mxPoint x="-55" y="70" as="sourcePoint" />
          </mxGeometry>
        </mxCell>
        <mxCell id="jC507fco_XKDHWjVbaC3-10" value="dispatch" style="html=1;verticalAlign=bottom;endArrow=block;entryX=0;entryY=0;rounded=0;" edge="1" parent="jC507fco_XKDHWjVbaC3-1" source="jC507fco_XKDHWjVbaC3-8" target="jC507fco_XKDHWjVbaC3-4">
          <mxGeometry relative="1" as="geometry">
            <mxPoint x="200" y="160" as="sourcePoint" />
          </mxGeometry>
        </mxCell>
        <mxCell id="jC507fco_XKDHWjVbaC3-11" value="[items=true]" style="edgeLabel;html=1;align=center;verticalAlign=middle;resizable=0;points=[];" vertex="1" connectable="0" parent="jC507fco_XKDHWjVbaC3-10">
          <mxGeometry x="-0.8588" y="2" relative="1" as="geometry">
            <mxPoint x="22" y="-8" as="offset" />
          </mxGeometry>
        </mxCell>
        <mxCell id="jC507fco_XKDHWjVbaC3-12" value="return" style="html=1;verticalAlign=bottom;endArrow=open;dashed=1;endSize=8;exitX=0;exitY=0.95;rounded=0;" edge="1" parent="jC507fco_XKDHWjVbaC3-1" source="jC507fco_XKDHWjVbaC3-4" target="jC507fco_XKDHWjVbaC3-8">
          <mxGeometry relative="1" as="geometry">
            <mxPoint x="200" y="236" as="targetPoint" />
          </mxGeometry>
        </mxCell>
        <mxCell id="jC507fco_XKDHWjVbaC3-13" value=":Object" style="shape=umlLifeline;perimeter=lifelinePerimeter;whiteSpace=wrap;html=1;container=1;collapsible=0;recursiveResize=0;outlineConnect=0;fillColor=#d5e8d4;strokeColor=#82b366;" vertex="1" parent="jC507fco_XKDHWjVbaC3-1">
          <mxGeometry x="490" y="80" width="100" height="400" as="geometry" />
        </mxCell>
        <mxCell id="jC507fco_XKDHWjVbaC3-14" value="" style="html=1;points=[];perimeter=orthogonalPerimeter;" vertex="1" parent="jC507fco_XKDHWjVbaC3-13">
          <mxGeometry x="44" y="200" width="10" height="80" as="geometry" />
        </mxCell>
        <mxCell id="jC507fco_XKDHWjVbaC3-15" value="dispatch" style="html=1;verticalAlign=bottom;endArrow=block;entryX=0;entryY=0;rounded=0;" edge="1" parent="jC507fco_XKDHWjVbaC3-1" source="jC507fco_XKDHWjVbaC3-4" target="jC507fco_XKDHWjVbaC3-14">
          <mxGeometry relative="1" as="geometry">
            <mxPoint x="374" y="280" as="sourcePoint" />
          </mxGeometry>
        </mxCell>
        <mxCell id="jC507fco_XKDHWjVbaC3-16" value="return" style="html=1;verticalAlign=bottom;endArrow=open;dashed=1;endSize=8;exitX=0;exitY=0.95;rounded=0;" edge="1" parent="jC507fco_XKDHWjVbaC3-1" source="jC507fco_XKDHWjVbaC3-14" target="jC507fco_XKDHWjVbaC3-4">
          <mxGeometry relative="1" as="geometry">
            <mxPoint x="680" y="430" as="targetPoint" />
          </mxGeometry>
        </mxCell>
        <mxCell id="jC507fco_XKDHWjVbaC3-17" value="" style="group" vertex="1" connectable="0" parent="jC507fco_XKDHWjVbaC3-1">
          <mxGeometry x="278" y="170" width="334" height="190" as="geometry" />
        </mxCell>
        <mxCell id="jC507fco_XKDHWjVbaC3-18" value="loop" style="shape=umlFrame;whiteSpace=wrap;html=1;fillColor=#ffe6cc;strokeColor=#d79b00;" vertex="1" parent="jC507fco_XKDHWjVbaC3-17">
          <mxGeometry width="334" height="190" as="geometry" />
        </mxCell>
        <mxCell id="jC507fco_XKDHWjVbaC3-19" value="&lt;span style=&quot;font-size: 11px; background-color: rgb(255, 255, 255);&quot;&gt;[items=true]&lt;/span&gt;" style="text;html=1;align=center;verticalAlign=middle;resizable=0;points=[];autosize=1;strokeColor=none;fillColor=none;" vertex="1" parent="jC507fco_XKDHWjVbaC3-17">
          <mxGeometry y="32" width="70" height="20" as="geometry" />
        </mxCell>
        <mxCell id="jC507fco_XKDHWjVbaC3-20" style="rounded=0;orthogonalLoop=1;jettySize=auto;html=1;endArrow=none;endFill=0;dashed=1;fillColor=#ffe6cc;strokeColor=#d79b00;" edge="1" parent="jC507fco_XKDHWjVbaC3-1" source="jC507fco_XKDHWjVbaC3-21" target="jC507fco_XKDHWjVbaC3-18">
          <mxGeometry relative="1" as="geometry" />
        </mxCell>
        <mxCell id="jC507fco_XKDHWjVbaC3-21" value="Only on valid items" style="shape=note2;boundedLbl=1;whiteSpace=wrap;html=1;size=25;verticalAlign=top;align=center;fillColor=#ffe6cc;strokeColor=#d79b00;" vertex="1" parent="jC507fco_XKDHWjVbaC3-1">
          <mxGeometry x="630" y="200" width="120" height="60" as="geometry" />
        </mxCell>
      </root>
    </mxGraphModel>
  </diagram>
</mxfile>
